<mxfile host="app.diagrams.net" modified="2022-11-24T05:16:42.493Z" agent="5.0 (Macintosh; Intel Mac OS X 10_15_7) AppleWebKit/537.36 (KHTML, like Gecko) Chrome/107.0.0.0 Safari/537.36" etag="yZ4DQAr6sDe8622zZ6DB" version="20.1.1" type="github">
  <diagram name="Page-1" id="aaaa8250-4180-3840-79b5-4cada1eebb92">
    <mxGraphModel dx="2377" dy="1523" grid="1" gridSize="10" guides="1" tooltips="1" connect="1" arrows="1" fold="1" page="1" pageScale="1" pageWidth="850" pageHeight="1100" background="none" math="0" shadow="0">
      <root>
        <mxCell id="0" />
        <mxCell id="1" parent="0" />
        <mxCell id="1a8abee3a6cfdf20-4" value="" style="verticalLabelPosition=bottom;html=1;verticalAlign=top;strokeWidth=1;dashed=0;shape=mxgraph.aws3d.dynamoDb;fillColor=#ECECEC;strokeColor=#5E5E5E;aspect=fixed;rounded=1;shadow=0;comic=0;fontSize=12" parent="1" vertex="1">
          <mxGeometry x="490" y="390" width="154.21" height="178.43" as="geometry" />
        </mxCell>
        <mxCell id="bOL7O9GU7xjIbsexC31x-89" style="edgeStyle=orthogonalEdgeStyle;rounded=0;orthogonalLoop=1;jettySize=auto;html=1;" edge="1" parent="1" source="1a8abee3a6cfdf20-6" target="bOL7O9GU7xjIbsexC31x-88">
          <mxGeometry relative="1" as="geometry" />
        </mxCell>
        <mxCell id="1a8abee3a6cfdf20-6" value="&lt;font style=&quot;font-size: 36px;&quot;&gt;TAG Ignition&lt;/font&gt;" style="verticalLabelPosition=bottom;html=1;verticalAlign=top;strokeWidth=1;dashed=0;shape=mxgraph.aws3d.elasticLoadBalancing;fillColor=#ECECEC;strokeColor=#5E5E5E;aspect=fixed;rounded=1;shadow=0;comic=0;fontSize=12;" parent="1" vertex="1">
          <mxGeometry x="1218.6" y="1038.43" width="131.4" height="125.93" as="geometry" />
        </mxCell>
        <mxCell id="bOL7O9GU7xjIbsexC31x-12" style="edgeStyle=orthogonalEdgeStyle;rounded=0;orthogonalLoop=1;jettySize=auto;html=1;" edge="1" parent="1" source="1a8abee3a6cfdf20-7" target="1a8abee3a6cfdf20-6">
          <mxGeometry relative="1" as="geometry" />
        </mxCell>
        <mxCell id="1a8abee3a6cfdf20-7" value="&lt;b&gt;PLC&lt;/b&gt;" style="verticalLabelPosition=bottom;html=1;verticalAlign=top;strokeWidth=1;dashed=0;shape=mxgraph.aws3d.workflowService;fillColor=#ECECEC;strokeColor=#5E5E5E;aspect=fixed;rounded=1;shadow=0;comic=0;fontSize=12" parent="1" vertex="1">
          <mxGeometry x="1138.73" y="878.4300000000001" width="110.5" height="90" as="geometry" />
        </mxCell>
        <mxCell id="1a8abee3a6cfdf20-13" value="" style="verticalLabelPosition=bottom;html=1;verticalAlign=top;strokeWidth=1;dashed=0;shape=mxgraph.aws3d.simpleDb2;fillColor=#ECECEC;strokeColor=#5E5E5E;aspect=fixed;rounded=1;shadow=0;comic=0;fontSize=12" parent="1" vertex="1">
          <mxGeometry x="1110" y="628.4300000000001" width="160.2" height="170" as="geometry" />
        </mxCell>
        <mxCell id="1a8abee3a6cfdf20-20" value="" style="verticalLabelPosition=bottom;html=1;verticalAlign=top;strokeWidth=1;dashed=0;shape=mxgraph.aws3d.simpleDb2;fillColor=#004C99;strokeColor=#99CCFF;aspect=fixed;rounded=1;shadow=0;comic=0;fontSize=12" parent="1" vertex="1">
          <mxGeometry x="1280" y="628.4300000000001" width="160.2" height="170" as="geometry" />
        </mxCell>
        <mxCell id="bOL7O9GU7xjIbsexC31x-11" style="edgeStyle=orthogonalEdgeStyle;rounded=0;orthogonalLoop=1;jettySize=auto;html=1;entryX=0.468;entryY=-0.051;entryDx=0;entryDy=0;entryPerimeter=0;" edge="1" parent="1" target="1a8abee3a6cfdf20-7">
          <mxGeometry relative="1" as="geometry">
            <mxPoint x="1189.666666666667" y="798.4300000000001" as="sourcePoint" />
          </mxGeometry>
        </mxCell>
        <mxCell id="bOL7O9GU7xjIbsexC31x-13" style="edgeStyle=orthogonalEdgeStyle;rounded=0;orthogonalLoop=1;jettySize=auto;html=1;entryX=0.505;entryY=-0.044;entryDx=0;entryDy=0;entryPerimeter=0;" edge="1" parent="1" source="bOL7O9GU7xjIbsexC31x-6" target="1a8abee3a6cfdf20-6">
          <mxGeometry relative="1" as="geometry" />
        </mxCell>
        <mxCell id="bOL7O9GU7xjIbsexC31x-6" value="&lt;b&gt;PLC&lt;/b&gt;" style="verticalLabelPosition=bottom;html=1;verticalAlign=top;strokeWidth=1;dashed=0;shape=mxgraph.aws3d.workflowService;fillColor=#ECECEC;strokeColor=#5E5E5E;aspect=fixed;rounded=1;shadow=0;comic=0;fontSize=12" vertex="1" parent="1">
          <mxGeometry x="1298.73" y="878.4300000000001" width="110.5" height="90" as="geometry" />
        </mxCell>
        <mxCell id="bOL7O9GU7xjIbsexC31x-94" style="edgeStyle=orthogonalEdgeStyle;rounded=0;orthogonalLoop=1;jettySize=auto;html=1;entryX=0.999;entryY=0.296;entryDx=0;entryDy=0;entryPerimeter=0;" edge="1" parent="1" source="bOL7O9GU7xjIbsexC31x-43" target="bOL7O9GU7xjIbsexC31x-88">
          <mxGeometry relative="1" as="geometry" />
        </mxCell>
        <mxCell id="bOL7O9GU7xjIbsexC31x-43" value="&lt;font style=&quot;font-size: 36px;&quot;&gt;Scada Ignition&lt;/font&gt;" style="verticalLabelPosition=bottom;html=1;verticalAlign=top;strokeWidth=1;dashed=0;shape=mxgraph.aws3d.elasticLoadBalancing;fillColor=#ECECEC;strokeColor=#5E5E5E;aspect=fixed;rounded=1;shadow=0;comic=0;fontSize=12;" vertex="1" parent="1">
          <mxGeometry x="1851.4899999999998" y="828.4300000000001" width="119.13" height="114.17" as="geometry" />
        </mxCell>
        <mxCell id="bOL7O9GU7xjIbsexC31x-44" style="edgeStyle=orthogonalEdgeStyle;rounded=0;orthogonalLoop=1;jettySize=auto;html=1;" edge="1" parent="1" source="bOL7O9GU7xjIbsexC31x-45" target="bOL7O9GU7xjIbsexC31x-43">
          <mxGeometry relative="1" as="geometry" />
        </mxCell>
        <mxCell id="bOL7O9GU7xjIbsexC31x-45" value="&lt;b&gt;PLC&lt;/b&gt;" style="verticalLabelPosition=bottom;html=1;verticalAlign=top;strokeWidth=1;dashed=0;shape=mxgraph.aws3d.workflowService;fillColor=#ECECEC;strokeColor=#5E5E5E;aspect=fixed;rounded=1;shadow=0;comic=0;fontSize=12" vertex="1" parent="1">
          <mxGeometry x="1771.62" y="668.4300000000001" width="110.5" height="90" as="geometry" />
        </mxCell>
        <mxCell id="bOL7O9GU7xjIbsexC31x-46" value="Device" style="verticalLabelPosition=bottom;html=1;verticalAlign=top;strokeWidth=1;dashed=0;shape=mxgraph.aws3d.cloudfront;fillColor=#ECECEC;strokeColor=#5E5E5E;aspect=fixed;rounded=1;shadow=0;comic=0;fontSize=12" vertex="1" parent="1">
          <mxGeometry x="1752.8899999999999" y="428.43" width="79.47" height="130" as="geometry" />
        </mxCell>
        <mxCell id="bOL7O9GU7xjIbsexC31x-47" value="Device" style="verticalLabelPosition=bottom;html=1;verticalAlign=top;strokeWidth=1;dashed=0;shape=mxgraph.aws3d.cloudfront;fillColor=#ECECEC;strokeColor=#5E5E5E;aspect=fixed;rounded=1;shadow=0;comic=0;fontSize=12" vertex="1" parent="1">
          <mxGeometry x="1762.8899999999999" y="438.43" width="79.47" height="130" as="geometry" />
        </mxCell>
        <mxCell id="bOL7O9GU7xjIbsexC31x-48" value="Device" style="verticalLabelPosition=bottom;html=1;verticalAlign=top;strokeWidth=1;dashed=0;shape=mxgraph.aws3d.cloudfront;fillColor=#ECECEC;strokeColor=#5E5E5E;aspect=fixed;rounded=1;shadow=0;comic=0;fontSize=12" vertex="1" parent="1">
          <mxGeometry x="1772.8899999999999" y="448.43" width="79.47" height="130" as="geometry" />
        </mxCell>
        <mxCell id="bOL7O9GU7xjIbsexC31x-49" value="" style="edgeStyle=orthogonalEdgeStyle;rounded=0;orthogonalLoop=1;jettySize=auto;html=1;" edge="1" parent="1" source="bOL7O9GU7xjIbsexC31x-51" target="bOL7O9GU7xjIbsexC31x-53">
          <mxGeometry relative="1" as="geometry" />
        </mxCell>
        <mxCell id="bOL7O9GU7xjIbsexC31x-50" style="edgeStyle=orthogonalEdgeStyle;rounded=0;orthogonalLoop=1;jettySize=auto;html=1;entryX=0.468;entryY=-0.051;entryDx=0;entryDy=0;entryPerimeter=0;" edge="1" parent="1" source="bOL7O9GU7xjIbsexC31x-51" target="bOL7O9GU7xjIbsexC31x-45">
          <mxGeometry relative="1" as="geometry" />
        </mxCell>
        <mxCell id="bOL7O9GU7xjIbsexC31x-51" value="Device" style="verticalLabelPosition=bottom;html=1;verticalAlign=top;strokeWidth=1;dashed=0;shape=mxgraph.aws3d.cloudfront;fillColor=#ECECEC;strokeColor=#5E5E5E;aspect=fixed;rounded=1;shadow=0;comic=0;fontSize=12" vertex="1" parent="1">
          <mxGeometry x="1782.8899999999999" y="458.43" width="79.47" height="130" as="geometry" />
        </mxCell>
        <mxCell id="bOL7O9GU7xjIbsexC31x-52" style="edgeStyle=orthogonalEdgeStyle;rounded=0;orthogonalLoop=1;jettySize=auto;html=1;entryX=0.505;entryY=-0.044;entryDx=0;entryDy=0;entryPerimeter=0;" edge="1" parent="1" source="bOL7O9GU7xjIbsexC31x-53" target="bOL7O9GU7xjIbsexC31x-43">
          <mxGeometry relative="1" as="geometry" />
        </mxCell>
        <mxCell id="bOL7O9GU7xjIbsexC31x-53" value="&lt;b&gt;PLC&lt;/b&gt;" style="verticalLabelPosition=bottom;html=1;verticalAlign=top;strokeWidth=1;dashed=0;shape=mxgraph.aws3d.workflowService;fillColor=#ECECEC;strokeColor=#5E5E5E;aspect=fixed;rounded=1;shadow=0;comic=0;fontSize=12" vertex="1" parent="1">
          <mxGeometry x="1931.62" y="668.4300000000001" width="110.5" height="90" as="geometry" />
        </mxCell>
        <mxCell id="bOL7O9GU7xjIbsexC31x-54" value="Device" style="verticalLabelPosition=bottom;html=1;verticalAlign=top;strokeWidth=1;dashed=0;shape=mxgraph.aws3d.cloudfront;fillColor=#ECECEC;strokeColor=#5E5E5E;aspect=fixed;rounded=1;shadow=0;comic=0;fontSize=12" vertex="1" parent="1">
          <mxGeometry x="1931.62" y="438.43" width="79.47" height="130" as="geometry" />
        </mxCell>
        <mxCell id="bOL7O9GU7xjIbsexC31x-55" value="Device" style="verticalLabelPosition=bottom;html=1;verticalAlign=top;strokeWidth=1;dashed=0;shape=mxgraph.aws3d.cloudfront;fillColor=#ECECEC;strokeColor=#5E5E5E;aspect=fixed;rounded=1;shadow=0;comic=0;fontSize=12" vertex="1" parent="1">
          <mxGeometry x="1941.62" y="448.43" width="79.47" height="130" as="geometry" />
        </mxCell>
        <mxCell id="bOL7O9GU7xjIbsexC31x-56" value="Device" style="verticalLabelPosition=bottom;html=1;verticalAlign=top;strokeWidth=1;dashed=0;shape=mxgraph.aws3d.cloudfront;fillColor=#ECECEC;strokeColor=#5E5E5E;aspect=fixed;rounded=1;shadow=0;comic=0;fontSize=12" vertex="1" parent="1">
          <mxGeometry x="1951.62" y="458.43" width="79.47" height="130" as="geometry" />
        </mxCell>
        <mxCell id="bOL7O9GU7xjIbsexC31x-93" style="edgeStyle=orthogonalEdgeStyle;rounded=0;orthogonalLoop=1;jettySize=auto;html=1;entryX=-0.008;entryY=0.307;entryDx=0;entryDy=0;entryPerimeter=0;" edge="1" parent="1" source="bOL7O9GU7xjIbsexC31x-72" target="bOL7O9GU7xjIbsexC31x-88">
          <mxGeometry relative="1" as="geometry" />
        </mxCell>
        <mxCell id="bOL7O9GU7xjIbsexC31x-72" value="&lt;font style=&quot;font-size: 36px;&quot;&gt;HMI Ignition&lt;/font&gt;" style="verticalLabelPosition=bottom;html=1;verticalAlign=top;strokeWidth=1;dashed=0;shape=mxgraph.aws3d.elasticLoadBalancing;fillColor=#ECECEC;strokeColor=#5E5E5E;aspect=fixed;rounded=1;shadow=0;comic=0;fontSize=12;" vertex="1" parent="1">
          <mxGeometry x="598.5999999999999" y="808.4300000000001" width="119.13" height="114.17" as="geometry" />
        </mxCell>
        <mxCell id="bOL7O9GU7xjIbsexC31x-73" style="edgeStyle=orthogonalEdgeStyle;rounded=0;orthogonalLoop=1;jettySize=auto;html=1;" edge="1" parent="1" source="bOL7O9GU7xjIbsexC31x-74" target="bOL7O9GU7xjIbsexC31x-72">
          <mxGeometry relative="1" as="geometry" />
        </mxCell>
        <mxCell id="bOL7O9GU7xjIbsexC31x-74" value="&lt;b&gt;PLC&lt;/b&gt;" style="verticalLabelPosition=bottom;html=1;verticalAlign=top;strokeWidth=1;dashed=0;shape=mxgraph.aws3d.workflowService;fillColor=#ECECEC;strokeColor=#5E5E5E;aspect=fixed;rounded=1;shadow=0;comic=0;fontSize=12" vertex="1" parent="1">
          <mxGeometry x="518.73" y="648.4300000000001" width="110.5" height="90" as="geometry" />
        </mxCell>
        <mxCell id="bOL7O9GU7xjIbsexC31x-79" style="edgeStyle=orthogonalEdgeStyle;rounded=0;orthogonalLoop=1;jettySize=auto;html=1;entryX=0.468;entryY=-0.051;entryDx=0;entryDy=0;entryPerimeter=0;" edge="1" parent="1" target="bOL7O9GU7xjIbsexC31x-74">
          <mxGeometry relative="1" as="geometry">
            <mxPoint x="569.741935483871" y="568.4300000000001" as="sourcePoint" />
          </mxGeometry>
        </mxCell>
        <mxCell id="bOL7O9GU7xjIbsexC31x-81" style="edgeStyle=orthogonalEdgeStyle;rounded=0;orthogonalLoop=1;jettySize=auto;html=1;entryX=0.505;entryY=-0.044;entryDx=0;entryDy=0;entryPerimeter=0;" edge="1" parent="1" source="bOL7O9GU7xjIbsexC31x-82" target="bOL7O9GU7xjIbsexC31x-72">
          <mxGeometry relative="1" as="geometry" />
        </mxCell>
        <mxCell id="bOL7O9GU7xjIbsexC31x-82" value="&lt;b&gt;PLC&lt;/b&gt;" style="verticalLabelPosition=bottom;html=1;verticalAlign=top;strokeWidth=1;dashed=0;shape=mxgraph.aws3d.workflowService;fillColor=#ECECEC;strokeColor=#5E5E5E;aspect=fixed;rounded=1;shadow=0;comic=0;fontSize=12" vertex="1" parent="1">
          <mxGeometry x="678.73" y="648.4300000000001" width="110.5" height="90" as="geometry" />
        </mxCell>
        <mxCell id="bOL7O9GU7xjIbsexC31x-88" value="&lt;font style=&quot;font-size: 36px;&quot;&gt;EAM Ignition&lt;/font&gt;" style="verticalLabelPosition=bottom;html=1;verticalAlign=top;strokeWidth=1;dashed=0;shape=mxgraph.aws3d.elasticLoadBalancing;fillColor=#ECECEC;strokeColor=#5E5E5E;aspect=fixed;rounded=1;shadow=0;comic=0;fontSize=12;" vertex="1" parent="1">
          <mxGeometry x="1219.4699999999998" y="1438.43" width="119.13" height="114.17" as="geometry" />
        </mxCell>
        <mxCell id="bOL7O9GU7xjIbsexC31x-96" style="edgeStyle=orthogonalEdgeStyle;rounded=0;orthogonalLoop=1;jettySize=auto;html=1;entryX=0.55;entryY=-0.022;entryDx=0;entryDy=0;entryPerimeter=0;" edge="1" parent="1" target="bOL7O9GU7xjIbsexC31x-6">
          <mxGeometry relative="1" as="geometry">
            <mxPoint x="1360.1999999999998" y="798.4300000000001" as="sourcePoint" />
          </mxGeometry>
        </mxCell>
        <mxCell id="bOL7O9GU7xjIbsexC31x-100" style="edgeStyle=orthogonalEdgeStyle;rounded=0;orthogonalLoop=1;jettySize=auto;html=1;" edge="1" parent="1" source="bOL7O9GU7xjIbsexC31x-98">
          <mxGeometry relative="1" as="geometry">
            <mxPoint x="742" y="648.4300000000001" as="targetPoint" />
          </mxGeometry>
        </mxCell>
        <mxCell id="bOL7O9GU7xjIbsexC31x-98" value="" style="verticalLabelPosition=bottom;html=1;verticalAlign=top;strokeWidth=1;dashed=0;shape=mxgraph.aws3d.dynamoDb;fillColor=#ECECEC;strokeColor=#5E5E5E;aspect=fixed;rounded=1;shadow=0;comic=0;fontSize=12" vertex="1" parent="1">
          <mxGeometry x="664.84" y="390" width="154.21" height="178.43" as="geometry" />
        </mxCell>
      </root>
    </mxGraphModel>
  </diagram>
</mxfile>
